<svg xmlns="http://www.w3.org/2000/svg" viewBox="0 0 800 600"><rect x="0" y="0" width="800" height="600" fill="#1c1b19" stroke="none" /><path fill="none" stroke="#fce8c3" stroke-width="5" d="M 0 300.0H 800M 400.0 0v 600" /><circle cx="500.0" cy="200.0" r="50" fill="#0aaeb3" stroke="none" /><rect x="50.0" y="250.0" width="80" height="120" fill="#f75341" stroke="none" /><polygon points="300.0,380.0 338.04226065180615,407.6393202250021 323.5114100916989,452.3606797749979 276.4885899083011,452.3606797749979 261.95773934819385,407.6393202250021" fill="#98bc37" stroke="none" /><polygon points="800,600 800,550 750,600" fill="#fce8c3" stroke="none" /><path fill="none" stroke="#fbb829" stroke-width="5" d="M 675.0 450.0C 674.98 454.44, 673.01 458.87, 669.39 462.76S 660.59 470.03, 654.79 472.66S 642.66 477.24, 636.89 478.74S 625.92 481.37, 622.09 482.71S 615.74 485.65, 614.65 488.09S 613.8 493.82, 614.82 498.16S 617.58 507.84, 619.12 513.81S 621.96 526.32, 622.25 532.57S 621.85 544.78, 619.86 549.46S 614.66 557.59, 610.5 559.22S 601.3 560.76, 596.02 559.06S 585.27 554.12, 580.21 550.18S 570.49 541.64, 566.5 537.53S 559.15 529.78, 556.21 527.57S 550.69 524.5, 547.99 525.29S 542.46 528.43, 539.04 531.83S 531.65 539.61, 527.05 543.92S 517.29 552.44, 511.97 555.47S 501.19 560.35, 496.31 560.4S 487.13 558.8, 484.0 555.49S 478.85 547.32, 478.08 541.6S 477.73 529.4, 478.85 523.07S 481.72 510.6, 483.23 505.36S 485.97 495.74, 486.07 492.41S 485.17 486.73, 482.67 484.99S 476.25 482.07, 471.24 480.79S 460.23 478.14, 454.17 476.14S 442.02 471.51, 437.09 468.19S 428.33 460.89, 426.44 456.59S 424.52 447.71, 426.44 443.41S 432.13 435.12, 437.09 431.81S 448.1 425.86, 454.17 423.86S 466.26 420.48, 471.24 419.21S 480.19 416.76, 482.67 415.01S 486.19 410.94, 486.07 407.59S 484.74 399.9, 483.23 394.64S 479.95 383.26, 478.85 376.93S 477.29 364.09, 478.08 358.4S 480.84 347.79, 484.0 344.51S 491.43 339.51, 496.31 339.6S 506.64 341.49, 511.97 344.53S 522.47 351.77, 527.05 356.08S 535.64 364.79, 539.04 368.17S 545.3 373.95, 547.99 374.71S 553.26 374.67, 556.21 372.43S 562.5 366.6, 566.5 362.47S 575.14 353.75, 580.21 349.82S 590.75 342.62, 596.02 340.94S 606.36 339.11, 610.5 340.78S 617.89 345.84, 619.86 350.54S 622.56 361.17, 622.25 367.43S 620.66 380.24, 619.12 386.19S 615.83 397.52, 614.82 401.84S 613.53 409.48, 614.65 411.91S 618.24 415.95, 622.09 417.29S 631.11 419.74, 636.89 421.26S 649.01 424.69, 654.79 427.34S 665.79 433.33, 669.39 437.24S 675.02 445.56, 675.0 450.0" /><line x1="250.0" y1="150.0" x2="550.0" y2="450.0" fill="none" stroke="#98bc37" stroke-width="5" stroke-dasharray="0 10" stroke-linecap="round" /><path fill="#ff5c8f" stroke="none" d="M 250.0 225.0C 246.45 225.0, 242.9 224.72, 239.4 224.15S 232.45 222.75, 229.1 221.64S 222.5 219.16, 219.39 217.54S 213.31 214.07, 210.53 211.99S 205.13 207.65, 202.75 205.19S 198.18 200.11, 196.25 197.35S 192.61 191.71, 191.16 188.73S 188.52 182.7, 187.59 179.61S 185.98 173.38, 185.57 170.26S 184.98 164.02, 185.07 160.97S 185.47 154.91, 186.02 152.0S 187.34 146.28, 188.31 143.6S 190.44 138.37, 191.76 135.98S 194.57 131.36, 196.18 129.31S 199.53 125.38, 201.35 123.7S 205.07 120.53, 207.02 119.24S 210.96 116.85, 212.96 115.95S 216.95 114.33, 218.92 113.79S 222.83 112.9, 224.7 112.7S 228.38 112.45, 230.1 112.55S 233.44 112.86, 234.96 113.19S 237.88 113.95, 239.17 114.45S 241.62 115.53, 242.65 116.14S 244.61 117.4, 245.39 118.05S 246.85 119.37, 247.4 120.0S 248.4 121.25, 248.75 121.8S 249.35 122.87, 249.54 123.3S 249.83 124.1, 249.9 124.37S 249.99 124.84, 250.0 124.93S 250.0 125.02, 250.0 124.93S 250.03 124.65, 250.1 124.37S 250.28 123.74, 250.46 123.3S 250.9 122.36, 251.25 121.8S 252.04 120.64, 252.6 120.0S 253.82 118.71, 254.61 118.05S 256.31 116.75, 257.35 116.14S 259.55 114.95, 260.83 114.45S 263.52 113.52, 265.04 113.19S 268.19 112.64, 269.9 112.55S 273.43 112.49, 275.3 112.7S 279.11 113.25, 281.08 113.79S 285.05 115.04, 287.04 115.95S 291.03 117.95, 292.98 119.24S 296.83 122.02, 298.65 123.7S 302.21 127.25, 303.82 129.31S 306.92 133.59, 308.24 135.98S 310.73 140.92, 311.69 143.6S 313.43 149.09, 313.98 152.0S 314.85 157.91, 314.93 160.97S 314.85 167.14, 314.43 170.26S 313.34 176.51, 312.41 179.61S 310.28 185.76, 308.84 188.73S 305.69 194.6, 303.75 197.35S 299.64 202.74, 297.25 205.19S 292.26 209.93, 289.47 211.99S 283.72 215.92, 280.61 217.54S 274.25 220.53, 270.9 221.64S 264.1 223.59, 260.6 224.15S 253.55 225.0, 250.0 225.0" /><path fill="#fce8c3" stroke="none" d="M 700.0 200.0L 750.0 200.0A 50 50 0 1 1 700.0 150.0Z" /><path fill="none" stroke="#fce8c3" stroke-width="5" d="M 650.0 100.0A 50 50 0 0 1 750.0 100.0" id="clone" /><use href="#clone" x="-20" y="0" /><use href="#clone" x="-40" y="0" /><ellipse cx="350.0" cy="350.0" rx="100" ry="50" fill="#fce8c380" stroke="#fce8c3" stroke-width="5" transform="rotate(29.999999999999996)" /><text x="20" y="60" font-family="Lexend Deca" font-size="40" fill="#fce8c3" stroke="none"><tspan x="20" y="60">PROGRAMMATIC</tspan><tspan x="20" dy="1em">SVG</tspan></text></svg>