<svg xmlns="http://www.w3.org/2000/svg" viewBox="0 0 600 600"><rect x="0" y="0" width="600" height="600" fill="#fff0cf" stroke="none" /><text x="300.0" y="100" font-family="Lexend Deca" font-size="40" fill="#33583c" stroke="none" text-anchor="middle" opacity="1.0"><tspan x="300.0" y="100">3D Equations</tspan></text><line x1="138.19660112501055" y1="300.0" x2="461.80339887498945" y2="300.0" fill="none" stroke="#3ba484" stroke-width="3" stroke-linecap="round" /><line x1="383.1253875554907" y1="158.5786437626905" x2="216.8746124445093" y2="441.4213562373095" fill="none" stroke="#3ba484" stroke-width="3" stroke-linecap="round" /><line x1="383.1253875554907" y1="441.4213562373095" x2="216.8746124445093" y2="158.5786437626905" fill="none" stroke="#3ba484" stroke-width="3" stroke-linecap="round" /><path fill="none" stroke="#fe7853" stroke-width="5" d="M 331.17 353.03C 331.5 352.44, 331.73 352.03, 331.74 351.8S 331.56 351.52, 331.1 351.58S 329.94 351.83, 328.96 352.05S 326.74 352.53, 325.28 352.73S 322.14 353.06, 320.34 353.03S 316.61 352.82, 314.69 352.39S 310.84 351.31, 309.07 350.35S 305.67 348.15, 304.34 346.61S 301.95 343.22, 301.3 341.12S 300.4 336.65, 300.63 334.11S 301.53 328.85, 302.7 326.07S 305.51 320.45, 307.57 317.7S 312.11 312.29, 314.88 309.86S 320.72 305.24, 323.9 303.43S 330.37 300.16, 333.56 299.19S 339.85 297.73, 342.62 297.77S 347.84 298.37, 349.74 299.46S 353.03 302.16, 353.7 304.23S 354.36 308.8, 353.54 311.63S 351.13 317.6, 348.71 320.87S 343.11 327.54, 339.18 330.85S 330.63 337.38, 325.45 340.28S 314.58 345.78, 308.59 347.84S 296.33 351.44, 290.1 352.28S 277.65 353.28, 271.81 352.64S 260.46 350.59, 255.66 348.35S 246.69 343.09, 243.49 339.31S 238.0 331.04, 236.85 325.96S 235.62 315.25, 236.75 309.26S 240.15 296.96, 243.55 290.6S 251.44 277.82, 256.87 271.68S 268.62 259.66, 275.58 254.36S 290.09 244.31, 297.88 240.41S 313.67 233.41, 321.47 231.36S 336.85 228.23, 343.77 228.28S 356.99 229.45, 362.21 231.67S 371.64 237.14, 374.47 241.34S 378.82 250.63, 378.79 256.4S 377.24 268.6, 374.15 275.36S 366.49 289.2, 360.48 296.21S 347.12 310.17, 338.65 316.64S 320.65 329.12, 310.45 334.26S 289.42 343.74, 278.45 346.9S 256.39 352.1, 245.74 352.77S 224.86 352.82, 215.63 350.76S 198.11 345.29, 191.3 340.53S 179.07 329.74, 175.46 322.6S 169.95 307.27, 170.03 298.34S 172.05 279.76, 175.92 269.83S 185.49 249.69, 192.87 239.7S 209.23 219.92, 219.45 210.85S 241.07 193.4, 253.14 186.17S 277.91 172.83, 290.6 168.22S 315.97 160.43, 327.94 158.94S 351.2 157.59, 361.14 159.45S 379.72 164.8, 386.47 169.87S 398.19 181.48, 400.91 189.27S 404.22 206.04, 402.43 215.79S 396.62 236.02, 390.33 246.71" /></svg>