<svg xmlns="http://www.w3.org/2000/svg" viewBox="0 0 600 600"><rect x="0" y="0" width="600" height="600" fill="#fff0cf" stroke="none" /><text x="300.0" y="100" font-family="Lexend Deca" font-size="40" fill="#33583c" stroke="none" text-anchor="middle" opacity="1.0"><tspan x="300.0" y="100">Plotting Functions</tspan></text><path fill="none" stroke="#3ba484" stroke-width="5" stroke-dasharray="10 5 5 5" d="M 0.0 300.0C 6.9 285.56, 13.79 271.12, 20.69 258.01S 34.48 233.13, 41.38 223.78S 55.17 207.51, 62.07 203.65S 75.86 198.98, 82.76 201.32S 96.55 209.13, 103.45 217.23S 117.24 236.07, 124.14 248.44S 137.93 274.83, 144.83 289.19S 158.62 318.24, 165.52 331.93S 179.31 358.28, 186.21 368.77S 200.0 387.55, 206.9 392.9S 220.69 400.64, 227.59 399.85S 241.38 395.12, 248.28 388.35S 262.07 372.02, 268.97 360.52S 282.76 335.6, 289.66 321.5S 303.45 292.61, 310.34 278.5S 324.14 250.98, 331.03 239.48S 344.83 218.41, 351.72 211.65S 365.52 200.93, 372.41 200.15S 386.21 201.76, 393.1 207.1S 406.9 220.74, 413.79 231.23S 427.59 254.38, 434.48 268.07S 448.28 296.45, 455.17 310.81S 468.97 339.18, 475.86 351.56S 489.66 374.66, 496.55 382.77S 510.34 396.35, 517.24 398.68S 531.03 400.22, 537.93 396.35S 551.72 385.57, 558.62 376.22S 572.41 355.1, 579.31 341.99S 593.1 314.44, 600.0 300.0" /></svg>