<svg xmlns="http://www.w3.org/2000/svg" viewBox="0 0 600 600"><rect x="0" y="0" width="600" height="600" fill="#fff0cf" stroke="none" /><text x="300.0" y="100" font-family="Lexend Deca" font-size="40" fill="#33583c" stroke="none" text-anchor="middle" opacity="1.0"><tspan x="300.0" y="100">3D Animations</tspan></text><path fill="none" stroke="#ffbc7d" stroke-width="5" d="M 375.0 300.0C 366.87 305.42, 358.16 310.83, 349.06 316.12S 330.48 326.58, 320.83 331.49S 301.37 341.08, 291.62 345.39S 272.2 353.66, 262.81 357.16S 244.32 363.73, 235.74 366.26S 219.05 370.82, 211.67 372.27S 197.57 374.6, 191.73 374.89S 180.87 374.89, 176.85 374.01S 169.75 371.68, 167.73 369.67S 164.71 365.12, 164.8 362.08S 166.01 355.51, 168.18 351.58S 173.56 343.31, 177.74 338.67S 187.03 329.08, 193.0 323.95S 205.78 313.49, 213.28 308.11S 228.94 297.28, 237.6 291.89S 255.42 281.18, 264.85 276.05S 283.98 265.97, 293.74 261.33S 313.29 252.35, 322.92 248.42S 341.99 240.96, 351.03 237.92S 368.71 232.33, 376.75 230.33S 392.23 226.86, 398.88 225.99S 411.43 224.81, 416.4 225.11S 425.42 226.28, 428.46 227.73S 433.55 231.2, 434.53 233.74S 435.43 239.33, 434.3 242.84S 430.98 250.3, 427.79 254.61S 420.41 263.59, 415.31 268.51S 404.2 278.59, 397.43 283.88S 383.13 294.58, 375.0 300.0" /><circle cx="300.0" cy="300.0" r="25.0" fill="#fe7853" stroke="none" /><circle cx="375.00000000000017" cy="299.9999999999999" r="10.0" fill="#50bac0" stroke="none" /><line x1="267.5240473580835" y1="235.0480947161671" x2="332.4759526419165" y2="364.9519052838329" fill="none" stroke="#fe7853" stroke-width="5" stroke-dasharray="5" /></svg>