<svg xmlns="http://www.w3.org/2000/svg" viewBox="0 0 600 600"><rect x="0" y="0" width="600" height="600" fill="#fff0cf" stroke="none" /><text x="300.0" y="100" font-family="Lexend Deca" font-size="40" fill="#33583c" stroke="none" text-anchor="middle" opacity="1.0"><tspan x="300.0" y="100">Parametric Equations</tspan></text><path fill="none" stroke="#3ba484" stroke-width="5" d="M 450.0 300.0C 449.95 321.67, 439.12 343.33, 419.41 362.98S 371.46 400.31, 340.13 414.32S 274.65 438.76, 244.48 444.53S 188.18 451.55, 171.47 448.02S 147.32 436.33, 150.88 424.15S 168.72 395.91, 191.1 377.33S 243.65 337.76, 275.73 316.22S 341.57 272.63, 370.26 252.1S 422.53 212.56, 436.14 196.85S 453.53 168.65, 446.49 160.65S 421.91 149.03, 397.11 150.22S 340.57 157.31, 308.12 167.47S 242.69 191.96, 215.82 209.22S 168.18 246.59, 157.85 267.75S 147.43 311.09, 157.85 332.25S 188.9 373.54, 215.82 390.78S 275.67 422.4, 308.12 432.53S 372.37 448.63, 397.11 449.78S 439.55 447.39, 446.49 439.35S 449.83 418.9, 436.14 403.15S 399.0 368.43, 370.26 347.9S 307.8 305.32, 275.73 283.78S 213.41 241.22, 191.1 222.67S 154.34 187.99, 150.88 175.85S 154.67 155.46, 171.47 151.98S 214.27 149.65, 244.48 155.47S 308.83 171.63, 340.13 185.68S 399.79 217.34, 419.41 237.02S 450.05 278.33, 450.0 300.0" /></svg>